# xmcd CD database file
#
# Track frame offsets:
#	150
#	47925
#	88324
#	114014
#	152323
#	194965
#
# Disc length: 3018 seconds
#
# Revision: 0
# Processed by: cddbd v1.5.1PL0 Copyright (c) Steve Scherf et al.
# Submitted via: CDex 1.51
#
DISCID=4a0bc806
DTITLE=Derek Bailey - Carpal Tunnel
DYEAR=2005
DGENRE=Jazz
TTITLE0=Explanation and Thanks
TTITLE1=After 3 Weeks
TTITLE2=After 5 Weeks
TTITLE3=After 7 Weeks
TTITLE4=After 9 Weeks
TTITLE5=After 12 Weeks
EXTD=YEAR: 2005
EXTT0=
EXTT1=
EXTT2=
EXTT3=
EXTT4=
EXTT5=
PLAYORDER=
